<svg width="117" height="77" viewBox="0 0 117 77" fill="none" xmlns="http://www.w3.org/2000/svg">
<path d="M73.5003 33.5003L53.5003 53.5003L43.5003 43.5003M113.5 53.5003C113.501 50.8441 112.972 48.2145 111.945 45.7649C110.918 43.3153 109.414 41.0947 107.519 39.2329C105.625 37.3711 103.379 35.9053 100.912 34.921C98.4445 33.9368 95.8061 33.4538 93.1503 33.5003C92.0746 26.0541 88.6289 19.1526 83.3236 13.8182C78.0183 8.4838 71.1358 5.00029 63.6956 3.8838C56.2555 2.76731 48.6537 4.07722 42.0163 7.61947C35.379 11.1617 30.0593 16.7479 26.8453 23.5503C20.358 23.9607 14.2856 26.8818 9.91578 31.6941C5.54594 36.5064 3.2223 42.8315 3.43755 49.3282C3.65281 55.825 6.39005 61.9824 11.0688 66.4949C15.7476 71.0074 22.0001 73.5201 28.5003 73.5003H93.5003C98.8047 73.5003 103.892 71.3931 107.642 67.6424C111.393 63.8917 113.5 58.8046 113.5 53.5003Z" stroke="#5CAC48" stroke-width="6" stroke-linecap="round" stroke-linejoin="round"/>
</svg>
