<svg width="21" height="18" viewBox="0 0 21 18" fill="none" xmlns="http://www.w3.org/2000/svg">
<path d="M2.72222 0.0344849C1.49653 0.0344849 0.5 1.0396 0.5 2.27586V14.6034C0.5 15.8397 1.49653 16.8448 2.72222 16.8448H3.27778L3.83333 17.9655H6.05556L6.61111 16.8448H14.3889L14.9444 17.9655H17.1667L17.7222 16.8448H18.2778C19.5035 16.8448 20.5 15.8397 20.5 14.6034V2.27586C20.5 1.0396 19.5035 0.0344849 18.2778 0.0344849H2.72222ZM8.27778 11.2414C9.01449 11.2414 9.72103 10.9462 10.242 10.4208C10.7629 9.89535 11.0556 9.18272 11.0556 8.43966C11.0556 7.69659 10.7629 6.98396 10.242 6.45854C9.72103 5.93311 9.01449 5.63793 8.27778 5.63793C7.54107 5.63793 6.83453 5.93311 6.31359 6.45854C5.79266 6.98396 5.5 7.69659 5.5 8.43966C5.5 9.18272 5.79266 9.89535 6.31359 10.4208C6.83453 10.9462 7.54107 11.2414 8.27778 11.2414ZM8.27778 2.83621C9.7512 2.83621 11.1643 3.42657 12.2061 4.47742C13.248 5.52827 13.8333 6.95353 13.8333 8.43966C13.8333 9.92578 13.248 11.351 12.2061 12.4019C11.1643 13.4527 9.7512 14.0431 8.27778 14.0431C6.80435 14.0431 5.39128 13.4527 4.34941 12.4019C3.30754 11.351 2.72222 9.92578 2.72222 8.43966C2.72222 6.95353 3.30754 5.52827 4.34941 4.47742C5.39128 3.42657 6.80435 2.83621 8.27778 2.83621ZM17.1667 7.78475V11.8017C17.1667 12.1099 16.9167 12.3621 16.6111 12.3621C16.3056 12.3621 16.0556 12.1099 16.0556 11.8017V7.78475C15.4097 7.55361 14.9444 6.93023 14.9444 6.19828C14.9444 5.27021 15.691 4.51724 16.6111 4.51724C17.5312 4.51724 18.2778 5.27021 18.2778 6.19828C18.2778 6.93023 17.8125 7.55361 17.1667 7.78475Z" fill="#EAB030"/>
</svg>
