<svg width="50" height="50" viewBox="0 0 50 50" fill="none" xmlns="http://www.w3.org/2000/svg">
<path d="M24.8073 25L19.1448 30.6477L38.6306 49.9947H49.9878L24.8073 25Z" fill="#EAB030"/>
<path d="M9.84351 40.1611L19.6825 50.0013H31.3791L15.6854 34.2891L9.84351 40.1611Z" fill="#EAB030"/>
<path d="M0 49.9946L13.2148 49.9882L6.57856 43.3789L0 49.9946Z" fill="#EAB030"/>
<path d="M49.9995 0H38.6423L19.1565 19.3535L24.819 25.0012L49.9995 0Z" fill="#7D8790"/>
<path d="M15.6854 15.7123L31.3791 0H19.6825L9.84351 9.84661L15.6854 15.7123Z" fill="#7D8790"/>
<path d="M6.57856 6.61569L13.2148 0H0L6.57856 6.61569Z" fill="#7D8790"/>
<path d="M24.9819 25.0012L0 0V49.9959L24.9819 25.0012Z" fill="black"/>
</svg>
