<svg width="34" height="33" viewBox="0 0 34 33" fill="none" xmlns="http://www.w3.org/2000/svg">
<path d="M30.5952 12.2244C29.7089 12.0941 28.8551 11.866 27.9557 11.7877C27.0498 11.7095 26.1309 11.7161 25.2184 11.7552C25.0164 11.7617 24.8209 11.7812 24.6189 11.7943C24.6449 11.7291 24.6189 11.6444 24.5276 11.6509C23.7651 8.51607 23.2046 5.31608 21.7252 2.4224C21.1712 1.33401 19.6071 1.23625 18.7924 2.04439C16.2441 4.56659 13.9175 7.72747 12.7639 11.2077C12.5814 11.2207 12.3989 11.2403 12.2099 11.2468C12.0209 11.2533 11.8254 11.2598 11.6299 11.2598C11.3366 11.2468 11.0433 11.2403 10.7435 11.2207C9.48571 11.1425 8.22786 11.0383 6.97002 10.9992C5.7187 10.9601 4.23277 10.9014 3.02707 11.2859C1.96475 11.6248 1.75619 12.7393 2.26454 13.4888C2.16026 13.7103 2.15376 13.9645 2.34276 14.2252C2.76639 14.8053 3.2291 15.3853 3.7179 15.9393C3.78307 16.2325 3.88735 16.5323 4.04377 16.8256C4.9236 18.5136 6.78756 19.615 8.39081 20.5079C8.59285 20.6187 8.8014 20.723 9.00344 20.8272C8.14967 21.9091 7.53704 23.18 7.04173 24.4574C6.52034 25.7999 5.99245 27.3315 6.07065 28.7914C6.10976 29.5343 6.57248 30.2382 7.32196 30.4337C10.0071 31.1376 11.8776 29.5343 13.6437 27.7616C13.8393 27.6183 14.0348 27.4684 14.2238 27.3119C14.7777 26.9796 15.3187 26.6341 15.827 26.2822C15.8336 26.2822 15.8466 26.2692 15.8531 26.2627C16.8307 26.2301 17.9908 26.973 18.8185 27.5075C20.7997 28.7783 22.6376 30.538 24.9056 31.294C25.9419 31.6394 27.1476 31.5612 27.9687 30.7726C28.8551 29.9254 29.0376 28.6415 29.0311 27.4749C29.0246 24.5942 27.8514 22.1372 26.7696 19.5759C27.1215 19.3608 27.4799 19.1393 27.8254 18.9046C29.4025 17.8423 31.2795 16.4476 31.9247 14.5771C32.2311 13.6843 31.5663 12.3613 30.5822 12.2179L30.5952 12.2244ZM13.8914 11.123C13.8458 11.1295 13.8002 11.136 13.7545 11.1491C13.8197 11.136 13.8653 11.1295 13.8914 11.123Z" fill="#EAB030"/>
</svg>
